STARTFONT 2.1
FONT -envy-code_b-bold-r-normal--14-130-75-75-C-70-iso8859-1
SIZE 14 75 75
FONTBOUNDINGBOX 7 14 0 -3
STARTPROPERTIES 16
FOUNDRY "envycode"
FAMILY_NAME "code_b"
WEIGHT_NAME "bold"
SLANT "r"
SETWIDTH_NAME "normal"
ADDSTYLE_NAME ""
PIXEL_SIZE 14
POINT_SIZE 130
RESOLUTION_X 75
RESOLUTION_Y 75
FONT_ASCENT 11
FONT_DESCENT 3
AVERAGE_WIDTH 70
SPACING "c"
CHARSET_REGISTRY "iso8859"
CHARSET_ENCODING "1"
ENDPROPERTIES
CHARS 190
STARTCHAR U+0020
ENCODING 32
SWIDTH 480 0
DWIDTH 7 0
BBX 7 14 0 -3
BITMAP
00
00
00
00
00
00
00
00
00
00
00
00
00
00
ENDCHAR
STARTCHAR U+0021
ENCODING 33
SWIDTH 480 0
DWIDTH 7 0
BBX 7 14 0 -3
BITMAP
00
00
30
30
30
30
30
30
00
30
30
00
00
00
ENDCHAR
STARTCHAR U+0022
ENCODING 34
SWIDTH 480 0
DWIDTH 7 0
BBX 7 14 0 -3
BITMAP
00
00
6C
6C
6C
00
00
00
00
00
00
00
00
00
ENDCHAR
STARTCHAR U+0023
ENCODING 35
SWIDTH 480 0
DWIDTH 7 0
BBX 7 14 0 -3
BITMAP
00
00
00
00
68
FC
68
68
FC
68
00
00
00
00
ENDCHAR
STARTCHAR U+0024
ENCODING 36
SWIDTH 480 0
DWIDTH 7 0
BBX 7 14 0 -3
BITMAP
00
00
18
7C
C0
C0
70
38
0C
0C
F8
60
00
00
ENDCHAR
STARTCHAR U+0025
ENCODING 37
SWIDTH 480 0
DWIDTH 7 0
BBX 7 14 0 -3
BITMAP
00
00
60
D0
D4
68
10
38
74
B4
18
00
00
00
ENDCHAR
STARTCHAR U+0026
ENCODING 38
SWIDTH 480 0
DWIDTH 7 0
BBX 7 14 0 -3
BITMAP
00
00
70
D8
D8
D8
70
DC
D8
D8
6C
00
00
00
ENDCHAR
STARTCHAR U+0027
ENCODING 39
SWIDTH 480 0
DWIDTH 7 0
BBX 7 14 0 -3
BITMAP
00
00
30
30
30
00
00
00
00
00
00
00
00
00
ENDCHAR
STARTCHAR U+0028
ENCODING 40
SWIDTH 480 0
DWIDTH 7 0
BBX 7 14 0 -3
BITMAP
00
18
30
30
60
60
60
60
60
60
30
30
18
00
ENDCHAR
STARTCHAR U+0029
ENCODING 41
SWIDTH 480 0
DWIDTH 7 0
BBX 7 14 0 -3
BITMAP
00
60
30
30
18
18
18
18
18
18
30
30
60
00
ENDCHAR
STARTCHAR U+002A
ENCODING 42
SWIDTH 480 0
DWIDTH 7 0
BBX 7 14 0 -3
BITMAP
00
00
30
FC
78
FC
30
00
00
00
00
00
00
00
ENDCHAR
STARTCHAR U+002B
ENCODING 43
SWIDTH 480 0
DWIDTH 7 0
BBX 7 14 0 -3
BITMAP
00
00
00
00
30
30
FC
30
30
00
00
00
00
00
ENDCHAR
STARTCHAR U+002C
ENCODING 44
SWIDTH 480 0
DWIDTH 7 0
BBX 7 14 0 -3
BITMAP
00
00
00
00
00
00
00
00
00
30
30
60
00
00
ENDCHAR
STARTCHAR U+002D
ENCODING 45
SWIDTH 480 0
DWIDTH 7 0
BBX 7 14 0 -3
BITMAP
00
00
00
00
00
00
FC
00
00
00
00
00
00
00
ENDCHAR
STARTCHAR U+002E
ENCODING 46
SWIDTH 480 0
DWIDTH 7 0
BBX 7 14 0 -3
BITMAP
00
00
00
00
00
00
00
00
00
30
30
00
00
00
ENDCHAR
STARTCHAR U+002F
ENCODING 47
SWIDTH 480 0
DWIDTH 7 0
BBX 7 14 0 -3
BITMAP
00
00
0C
0C
18
18
30
30
60
60
C0
C0
00
00
ENDCHAR
STARTCHAR U+0030
ENCODING 48
SWIDTH 480 0
DWIDTH 7 0
BBX 7 14 0 -3
BITMAP
00
00
78
CC
CC
DC
FC
EC
CC
CC
78
00
00
00
ENDCHAR
STARTCHAR U+0031
ENCODING 49
SWIDTH 480 0
DWIDTH 7 0
BBX 7 14 0 -3
BITMAP
00
00
30
70
30
30
30
30
30
30
78
00
00
00
ENDCHAR
STARTCHAR U+0032
ENCODING 50
SWIDTH 480 0
DWIDTH 7 0
BBX 7 14 0 -3
BITMAP
00
00
78
CC
0C
18
30
60
C0
C0
FC
00
00
00
ENDCHAR
STARTCHAR U+0033
ENCODING 51
SWIDTH 480 0
DWIDTH 7 0
BBX 7 14 0 -3
BITMAP
00
00
78
CC
0C
0C
38
0C
0C
CC
78
00
00
00
ENDCHAR
STARTCHAR U+0034
ENCODING 52
SWIDTH 480 0
DWIDTH 7 0
BBX 7 14 0 -3
BITMAP
00
00
08
18
38
78
D8
D8
FC
18
18
00
00
00
ENDCHAR
STARTCHAR U+0035
ENCODING 53
SWIDTH 480 0
DWIDTH 7 0
BBX 7 14 0 -3
BITMAP
00
00
FC
C0
C0
C0
F8
0C
0C
0C
F8
00
00
00
ENDCHAR
STARTCHAR U+0036
ENCODING 54
SWIDTH 480 0
DWIDTH 7 0
BBX 7 14 0 -3
BITMAP
00
00
18
30
60
C0
F8
CC
CC
CC
78
00
00
00
ENDCHAR
STARTCHAR U+0037
ENCODING 55
SWIDTH 480 0
DWIDTH 7 0
BBX 7 14 0 -3
BITMAP
00
00
FC
0C
0C
18
18
30
30
60
60
00
00
00
ENDCHAR
STARTCHAR U+0038
ENCODING 56
SWIDTH 480 0
DWIDTH 7 0
BBX 7 14 0 -3
BITMAP
00
00
78
CC
CC
CC
78
CC
CC
CC
78
00
00
00
ENDCHAR
STARTCHAR U+0039
ENCODING 57
SWIDTH 480 0
DWIDTH 7 0
BBX 7 14 0 -3
BITMAP
00
00
78
CC
CC
CC
78
18
30
60
C0
00
00
00
ENDCHAR
STARTCHAR U+003A
ENCODING 58
SWIDTH 480 0
DWIDTH 7 0
BBX 7 14 0 -3
BITMAP
00
00
00
00
00
30
30
00
00
30
30
00
00
00
ENDCHAR
STARTCHAR U+003B
ENCODING 59
SWIDTH 480 0
DWIDTH 7 0
BBX 7 14 0 -3
BITMAP
00
00
00
00
00
30
30
00
00
30
30
60
00
00
ENDCHAR
STARTCHAR U+003C
ENCODING 60
SWIDTH 480 0
DWIDTH 7 0
BBX 7 14 0 -3
BITMAP
00
00
00
0C
18
30
60
30
18
0C
00
00
00
00
ENDCHAR
STARTCHAR U+003D
ENCODING 61
SWIDTH 480 0
DWIDTH 7 0
BBX 7 14 0 -3
BITMAP
00
00
00
00
00
FC
00
FC
00
00
00
00
00
00
ENDCHAR
STARTCHAR U+003E
ENCODING 62
SWIDTH 480 0
DWIDTH 7 0
BBX 7 14 0 -3
BITMAP
00
00
00
60
30
18
0C
18
30
60
00
00
00
00
ENDCHAR
STARTCHAR U+003F
ENCODING 63
SWIDTH 480 0
DWIDTH 7 0
BBX 7 14 0 -3
BITMAP
00
00
78
CC
CC
18
30
30
00
30
30
00
00
00
ENDCHAR
STARTCHAR U+0040
ENCODING 64
SWIDTH 480 0
DWIDTH 7 0
BBX 7 14 0 -3
BITMAP
00
38
6C
C6
9A
BA
AA
AA
BA
9C
C0
60
3C
00
ENDCHAR
STARTCHAR U+0041
ENCODING 65
SWIDTH 480 0
DWIDTH 7 0
BBX 7 14 0 -3
BITMAP
00
00
78
CC
CC
CC
FC
CC
CC
CC
CC
00
00
00
ENDCHAR
STARTCHAR U+0042
ENCODING 66
SWIDTH 480 0
DWIDTH 7 0
BBX 7 14 0 -3
BITMAP
00
00
F8
CC
CC
CC
F8
CC
CC
CC
F8
00
00
00
ENDCHAR
STARTCHAR U+0043
ENCODING 67
SWIDTH 480 0
DWIDTH 7 0
BBX 7 14 0 -3
BITMAP
00
00
3C
60
C0
C0
C0
C0
C0
60
3C
00
00
00
ENDCHAR
STARTCHAR U+0044
ENCODING 68
SWIDTH 480 0
DWIDTH 7 0
BBX 7 14 0 -3
BITMAP
00
00
F0
D8
CC
CC
CC
CC
CC
D8
F0
00
00
00
ENDCHAR
STARTCHAR U+0045
ENCODING 69
SWIDTH 480 0
DWIDTH 7 0
BBX 7 14 0 -3
BITMAP
00
00
FC
C0
C0
C0
F8
C0
C0
C0
FC
00
00
00
ENDCHAR
STARTCHAR U+0046
ENCODING 70
SWIDTH 480 0
DWIDTH 7 0
BBX 7 14 0 -3
BITMAP
00
00
FC
C0
C0
C0
F8
C0
C0
C0
C0
00
00
00
ENDCHAR
STARTCHAR U+0047
ENCODING 71
SWIDTH 480 0
DWIDTH 7 0
BBX 7 14 0 -3
BITMAP
00
00
3C
60
C0
C0
DC
CC
CC
6C
3C
00
00
00
ENDCHAR
STARTCHAR U+0048
ENCODING 72
SWIDTH 480 0
DWIDTH 7 0
BBX 7 14 0 -3
BITMAP
00
00
CC
CC
CC
CC
FC
CC
CC
CC
CC
00
00
00
ENDCHAR
STARTCHAR U+0049
ENCODING 73
SWIDTH 480 0
DWIDTH 7 0
BBX 7 14 0 -3
BITMAP
00
00
FC
30
30
30
30
30
30
30
FC
00
00
00
ENDCHAR
STARTCHAR U+004A
ENCODING 74
SWIDTH 480 0
DWIDTH 7 0
BBX 7 14 0 -3
BITMAP
00
00
0C
0C
0C
0C
0C
0C
0C
CC
78
00
00
00
ENDCHAR
STARTCHAR U+004B
ENCODING 75
SWIDTH 480 0
DWIDTH 7 0
BBX 7 14 0 -3
BITMAP
00
00
CC
CC
D8
F0
E0
F0
D8
CC
CC
00
00
00
ENDCHAR
STARTCHAR U+004C
ENCODING 76
SWIDTH 480 0
DWIDTH 7 0
BBX 7 14 0 -3
BITMAP
00
00
C0
C0
C0
C0
C0
C0
C0
C0
FC
00
00
00
ENDCHAR
STARTCHAR U+004D
ENCODING 77
SWIDTH 480 0
DWIDTH 7 0
BBX 7 14 0 -3
BITMAP
00
00
84
CC
FC
FC
CC
CC
CC
CC
CC
00
00
00
ENDCHAR
STARTCHAR U+004E
ENCODING 78
SWIDTH 480 0
DWIDTH 7 0
BBX 7 14 0 -3
BITMAP
00
00
8C
CC
EC
FC
FC
FC
DC
CC
C4
00
00
00
ENDCHAR
STARTCHAR U+004F
ENCODING 79
SWIDTH 480 0
DWIDTH 7 0
BBX 7 14 0 -3
BITMAP
00
00
78
CC
CC
CC
CC
CC
CC
CC
78
00
00
00
ENDCHAR
STARTCHAR U+0050
ENCODING 80
SWIDTH 480 0
DWIDTH 7 0
BBX 7 14 0 -3
BITMAP
00
00
F8
CC
CC
CC
F8
C0
C0
C0
C0
00
00
00
ENDCHAR
STARTCHAR U+0051
ENCODING 81
SWIDTH 480 0
DWIDTH 7 0
BBX 7 14 0 -3
BITMAP
00
00
78
CC
CC
CC
CC
CC
CC
D8
6C
0C
00
00
ENDCHAR
STARTCHAR U+0052
ENCODING 82
SWIDTH 480 0
DWIDTH 7 0
BBX 7 14 0 -3
BITMAP
00
00
F8
CC
CC
CC
F8
F0
D8
CC
CC
00
00
00
ENDCHAR
STARTCHAR U+0053
ENCODING 83
SWIDTH 480 0
DWIDTH 7 0
BBX 7 14 0 -3
BITMAP
00
00
7C
C0
C0
60
30
18
0C
0C
F8
00
00
00
ENDCHAR
STARTCHAR U+0054
ENCODING 84
SWIDTH 480 0
DWIDTH 7 0
BBX 7 14 0 -3
BITMAP
00
00
FC
30
30
30
30
30
30
30
30
00
00
00
ENDCHAR
STARTCHAR U+0055
ENCODING 85
SWIDTH 480 0
DWIDTH 7 0
BBX 7 14 0 -3
BITMAP
00
00
CC
CC
CC
CC
CC
CC
CC
CC
78
00
00
00
ENDCHAR
STARTCHAR U+0056
ENCODING 86
SWIDTH 480 0
DWIDTH 7 0
BBX 7 14 0 -3
BITMAP
00
00
C4
C4
C4
C4
C4
68
68
30
30
00
00
00
ENDCHAR
STARTCHAR U+0057
ENCODING 87
SWIDTH 480 0
DWIDTH 7 0
BBX 7 14 0 -3
BITMAP
00
00
C4
C4
C4
C4
C4
D4
FC
FC
68
00
00
00
ENDCHAR
STARTCHAR U+0058
ENCODING 88
SWIDTH 480 0
DWIDTH 7 0
BBX 7 14 0 -3
BITMAP
00
00
C4
C4
68
68
30
58
58
8C
8C
00
00
00
ENDCHAR
STARTCHAR U+0059
ENCODING 89
SWIDTH 480 0
DWIDTH 7 0
BBX 7 14 0 -3
BITMAP
00
00
8C
8C
8C
58
58
30
30
30
30
00
00
00
ENDCHAR
STARTCHAR U+005A
ENCODING 90
SWIDTH 480 0
DWIDTH 7 0
BBX 7 14 0 -3
BITMAP
00
00
FC
0C
0C
18
30
60
C0
C0
FC
00
00
00
ENDCHAR
STARTCHAR U+005B
ENCODING 91
SWIDTH 480 0
DWIDTH 7 0
BBX 7 14 0 -3
BITMAP
00
3C
30
30
30
30
30
30
30
30
30
30
3C
00
ENDCHAR
STARTCHAR U+005C
ENCODING 92
SWIDTH 480 0
DWIDTH 7 0
BBX 7 14 0 -3
BITMAP
00
00
C0
C0
60
60
30
30
18
18
0C
0C
00
00
ENDCHAR
STARTCHAR U+005D
ENCODING 93
SWIDTH 480 0
DWIDTH 7 0
BBX 7 14 0 -3
BITMAP
00
78
18
18
18
18
18
18
18
18
18
18
78
00
ENDCHAR
STARTCHAR U+005E
ENCODING 94
SWIDTH 480 0
DWIDTH 7 0
BBX 7 14 0 -3
BITMAP
00
00
30
30
68
68
C4
00
00
00
00
00
00
00
ENDCHAR
STARTCHAR U+005F
ENCODING 95
SWIDTH 480 0
DWIDTH 7 0
BBX 7 14 0 -3
BITMAP
00
00
00
00
00
00
00
00
00
00
00
00
00
FE
ENDCHAR
STARTCHAR U+0060
ENCODING 96
SWIDTH 480 0
DWIDTH 7 0
BBX 7 14 0 -3
BITMAP
00
00
60
30
00
00
00
00
00
00
00
00
00
00
ENDCHAR
STARTCHAR U+0061
ENCODING 97
SWIDTH 480 0
DWIDTH 7 0
BBX 7 14 0 -3
BITMAP
00
00
00
00
78
0C
0C
7C
CC
CC
7C
00
00
00
ENDCHAR
STARTCHAR U+0062
ENCODING 98
SWIDTH 480 0
DWIDTH 7 0
BBX 7 14 0 -3
BITMAP
00
00
C0
C0
F8
CC
CC
CC
CC
CC
F8
00
00
00
ENDCHAR
STARTCHAR U+0063
ENCODING 99
SWIDTH 480 0
DWIDTH 7 0
BBX 7 14 0 -3
BITMAP
00
00
00
00
3C
60
C0
C0
C0
60
3C
00
00
00
ENDCHAR
STARTCHAR U+0064
ENCODING 100
SWIDTH 480 0
DWIDTH 7 0
BBX 7 14 0 -3
BITMAP
00
00
0C
0C
7C
CC
CC
CC
CC
CC
7C
00
00
00
ENDCHAR
STARTCHAR U+0065
ENCODING 101
SWIDTH 480 0
DWIDTH 7 0
BBX 7 14 0 -3
BITMAP
00
00
00
00
78
CC
CC
FC
C0
C0
7C
00
00
00
ENDCHAR
STARTCHAR U+0066
ENCODING 102
SWIDTH 480 0
DWIDTH 7 0
BBX 7 14 0 -3
BITMAP
00
00
3C
60
60
F8
60
60
60
60
60
00
00
00
ENDCHAR
STARTCHAR U+0067
ENCODING 103
SWIDTH 480 0
DWIDTH 7 0
BBX 7 14 0 -3
BITMAP
00
00
00
00
7C
CC
CC
CC
CC
CC
7C
0C
CC
78
ENDCHAR
STARTCHAR U+0068
ENCODING 104
SWIDTH 480 0
DWIDTH 7 0
BBX 7 14 0 -3
BITMAP
00
00
C0
C0
D8
EC
CC
CC
CC
CC
CC
00
00
00
ENDCHAR
STARTCHAR U+0069
ENCODING 105
SWIDTH 480 0
DWIDTH 7 0
BBX 7 14 0 -3
BITMAP
00
00
30
00
70
30
30
30
30
30
30
00
00
00
ENDCHAR
STARTCHAR U+006A
ENCODING 106
SWIDTH 480 0
DWIDTH 7 0
BBX 7 14 0 -3
BITMAP
00
00
0C
00
1C
0C
0C
0C
0C
0C
0C
18
70
00
ENDCHAR
STARTCHAR U+006B
ENCODING 107
SWIDTH 480 0
DWIDTH 7 0
BBX 7 14 0 -3
BITMAP
00
00
C0
C0
CC
D8
F0
E0
F0
D8
CC
00
00
00
ENDCHAR
STARTCHAR U+006C
ENCODING 108
SWIDTH 480 0
DWIDTH 7 0
BBX 7 14 0 -3
BITMAP
00
00
70
30
30
30
30
30
30
30
30
00
00
00
ENDCHAR
STARTCHAR U+006D
ENCODING 109
SWIDTH 480 0
DWIDTH 7 0
BBX 7 14 0 -3
BITMAP
00
00
00
00
D8
FC
D4
D4
D4
D4
D4
00
00
00
ENDCHAR
STARTCHAR U+006E
ENCODING 110
SWIDTH 480 0
DWIDTH 7 0
BBX 7 14 0 -3
BITMAP
00
00
00
00
D8
EC
CC
CC
CC
CC
CC
00
00
00
ENDCHAR
STARTCHAR U+006F
ENCODING 111
SWIDTH 480 0
DWIDTH 7 0
BBX 7 14 0 -3
BITMAP
00
00
00
00
78
CC
CC
CC
CC
CC
78
00
00
00
ENDCHAR
STARTCHAR U+0070
ENCODING 112
SWIDTH 480 0
DWIDTH 7 0
BBX 7 14 0 -3
BITMAP
00
00
00
00
F8
CC
CC
CC
CC
CC
F8
C0
C0
C0
ENDCHAR
STARTCHAR U+0071
ENCODING 113
SWIDTH 480 0
DWIDTH 7 0
BBX 7 14 0 -3
BITMAP
00
00
00
00
7C
CC
CC
CC
CC
CC
7C
0C
0C
0C
ENDCHAR
STARTCHAR U+0072
ENCODING 114
SWIDTH 480 0
DWIDTH 7 0
BBX 7 14 0 -3
BITMAP
00
00
00
00
D8
EC
C0
C0
C0
C0
C0
00
00
00
ENDCHAR
STARTCHAR U+0073
ENCODING 115
SWIDTH 480 0
DWIDTH 7 0
BBX 7 14 0 -3
BITMAP
00
00
00
00
7C
C0
C0
78
0C
0C
F8
00
00
00
ENDCHAR
STARTCHAR U+0074
ENCODING 116
SWIDTH 480 0
DWIDTH 7 0
BBX 7 14 0 -3
BITMAP
00
00
60
60
F8
60
60
60
60
60
3C
00
00
00
ENDCHAR
STARTCHAR U+0075
ENCODING 117
SWIDTH 480 0
DWIDTH 7 0
BBX 7 14 0 -3
BITMAP
00
00
00
00
CC
CC
CC
CC
CC
DC
6C
00
00
00
ENDCHAR
STARTCHAR U+0076
ENCODING 118
SWIDTH 480 0
DWIDTH 7 0
BBX 7 14 0 -3
BITMAP
00
00
00
00
C4
C4
C4
68
68
30
30
00
00
00
ENDCHAR
STARTCHAR U+0077
ENCODING 119
SWIDTH 480 0
DWIDTH 7 0
BBX 7 14 0 -3
BITMAP
00
00
00
00
C4
C4
C4
D4
D4
FC
68
00
00
00
ENDCHAR
STARTCHAR U+0078
ENCODING 120
SWIDTH 480 0
DWIDTH 7 0
BBX 7 14 0 -3
BITMAP
00
00
00
00
CC
CC
78
30
78
CC
CC
00
00
00
ENDCHAR
STARTCHAR U+0079
ENCODING 121
SWIDTH 480 0
DWIDTH 7 0
BBX 7 14 0 -3
BITMAP
00
00
00
00
8C
8C
8C
58
58
58
30
30
60
C0
ENDCHAR
STARTCHAR U+007A
ENCODING 122
SWIDTH 480 0
DWIDTH 7 0
BBX 7 14 0 -3
BITMAP
00
00
00
00
FC
0C
18
30
60
C0
FC
00
00
00
ENDCHAR
STARTCHAR U+007B
ENCODING 123
SWIDTH 480 0
DWIDTH 7 0
BBX 7 14 0 -3
BITMAP
00
0C
18
18
18
30
E0
30
18
18
18
18
0C
00
ENDCHAR
STARTCHAR U+007C
ENCODING 124
SWIDTH 480 0
DWIDTH 7 0
BBX 7 14 0 -3
BITMAP
00
30
30
30
30
30
30
30
30
30
30
30
30
00
ENDCHAR
STARTCHAR U+007D
ENCODING 125
SWIDTH 480 0
DWIDTH 7 0
BBX 7 14 0 -3
BITMAP
00
C0
60
60
60
30
1C
30
60
60
60
60
C0
00
ENDCHAR
STARTCHAR U+007E
ENCODING 126
SWIDTH 480 0
DWIDTH 7 0
BBX 7 14 0 -3
BITMAP
00
00
00
00
00
64
FC
98
00
00
00
00
00
00
ENDCHAR
STARTCHAR U+00A1
ENCODING 161
SWIDTH 480 0
DWIDTH 7 0
BBX 7 14 0 -3
BITMAP
00
00
30
30
00
30
30
30
30
30
30
00
00
00
ENDCHAR
STARTCHAR U+00A2
ENCODING 162
SWIDTH 480 0
DWIDTH 7 0
BBX 7 14 0 -3
BITMAP
00
00
00
04
7C
C8
C8
D0
D0
D0
7C
20
00
00
ENDCHAR
STARTCHAR U+00A3
ENCODING 163
SWIDTH 480 0
DWIDTH 7 0
BBX 7 14 0 -3
BITMAP
00
00
38
6C
60
60
F8
60
60
60
FC
00
00
00
ENDCHAR
STARTCHAR U+00A4
ENCODING 164
SWIDTH 480 0
DWIDTH 7 0
BBX 7 14 0 -3
BITMAP
00
00
00
00
B4
48
CC
CC
48
B4
00
00
00
00
ENDCHAR
STARTCHAR U+00A5
ENCODING 165
SWIDTH 480 0
DWIDTH 7 0
BBX 7 14 0 -3
BITMAP
00
00
8C
8C
8C
58
58
FC
30
FC
30
00
00
00
ENDCHAR
STARTCHAR U+00A6
ENCODING 166
SWIDTH 480 0
DWIDTH 7 0
BBX 7 14 0 -3
BITMAP
00
30
30
30
30
30
00
00
30
30
30
30
30
00
ENDCHAR
STARTCHAR U+00A7
ENCODING 167
SWIDTH 480 0
DWIDTH 7 0
BBX 7 14 0 -3
BITMAP
00
00
3C
60
60
70
D8
CC
6C
38
18
18
F0
00
ENDCHAR
STARTCHAR U+00A8
ENCODING 168
SWIDTH 480 0
DWIDTH 7 0
BBX 7 14 0 -3
BITMAP
00
00
6C
00
00
00
00
00
00
00
00
00
00
00
ENDCHAR
STARTCHAR U+00A9
ENCODING 169
SWIDTH 480 0
DWIDTH 7 0
BBX 7 14 0 -3
BITMAP
00
00
38
44
9A
B2
B2
B2
9A
44
38
00
00
00
ENDCHAR
STARTCHAR U+00AA
ENCODING 170
SWIDTH 480 0
DWIDTH 7 0
BBX 7 14 0 -3
BITMAP
00
00
38
0C
3C
6C
3C
00
7C
00
00
00
00
00
ENDCHAR
STARTCHAR U+00AB
ENCODING 171
SWIDTH 480 0
DWIDTH 7 0
BBX 7 14 0 -3
BITMAP
00
00
00
00
00
36
6C
D8
6C
36
00
00
00
00
ENDCHAR
STARTCHAR U+00AC
ENCODING 172
SWIDTH 480 0
DWIDTH 7 0
BBX 7 14 0 -3
BITMAP
00
00
00
00
00
7C
0C
0C
00
00
00
00
00
00
ENDCHAR
STARTCHAR U+00AD
ENCODING 173
SWIDTH 480 0
DWIDTH 7 0
BBX 7 14 0 -3
BITMAP
00
00
00
00
00
00
7C
00
00
00
00
00
00
00
ENDCHAR
STARTCHAR U+00AE
ENCODING 174
SWIDTH 480 0
DWIDTH 7 0
BBX 7 14 0 -3
BITMAP
00
00
38
44
B2
AA
B2
AA
AA
44
38
00
00
00
ENDCHAR
STARTCHAR U+00AF
ENCODING 175
SWIDTH 480 0
DWIDTH 7 0
BBX 7 14 0 -3
BITMAP
00
7C
00
00
00
00
00
00
00
00
00
00
00
00
ENDCHAR
STARTCHAR U+00B0
ENCODING 176
SWIDTH 480 0
DWIDTH 7 0
BBX 7 14 0 -3
BITMAP
00
00
30
68
68
30
00
00
00
00
00
00
00
00
ENDCHAR
STARTCHAR U+00B1
ENCODING 177
SWIDTH 480 0
DWIDTH 7 0
BBX 7 14 0 -3
BITMAP
00
00
00
30
30
FC
30
30
FC
00
00
00
00
00
ENDCHAR
STARTCHAR U+00B2
ENCODING 178
SWIDTH 480 0
DWIDTH 7 0
BBX 7 14 0 -3
BITMAP
00
00
78
0C
38
60
7C
00
00
00
00
00
00
00
ENDCHAR
STARTCHAR U+00B3
ENCODING 179
SWIDTH 480 0
DWIDTH 7 0
BBX 7 14 0 -3
BITMAP
00
00
78
0C
38
0C
78
00
00
00
00
00
00
00
ENDCHAR
STARTCHAR U+00B4
ENCODING 180
SWIDTH 480 0
DWIDTH 7 0
BBX 7 14 0 -3
BITMAP
00
18
30
00
00
00
00
00
00
00
00
00
00
00
ENDCHAR
STARTCHAR U+00B5
ENCODING 181
SWIDTH 480 0
DWIDTH 7 0
BBX 7 14 0 -3
BITMAP
00
00
00
00
00
CC
CC
CC
CC
EC
D8
C0
C0
C0
ENDCHAR
STARTCHAR U+00B6
ENCODING 182
SWIDTH 480 0
DWIDTH 7 0
BBX 7 14 0 -3
BITMAP
00
00
00
7C
EC
EC
EC
6C
2C
2C
2C
2C
2C
00
ENDCHAR
STARTCHAR U+00B7
ENCODING 183
SWIDTH 480 0
DWIDTH 7 0
BBX 7 14 0 -3
BITMAP
00
00
00
00
00
30
30
00
00
00
00
00
00
00
ENDCHAR
STARTCHAR U+00B8
ENCODING 184
SWIDTH 480 0
DWIDTH 7 0
BBX 7 14 0 -3
BITMAP
00
00
00
00
00
00
00
00
00
00
00
10
60
00
ENDCHAR
STARTCHAR U+00B9
ENCODING 185
SWIDTH 480 0
DWIDTH 7 0
BBX 7 14 0 -3
BITMAP
00
00
30
70
30
30
78
00
00
00
00
00
00
00
ENDCHAR
STARTCHAR U+00BA
ENCODING 186
SWIDTH 480 0
DWIDTH 7 0
BBX 7 14 0 -3
BITMAP
00
00
38
6C
6C
6C
38
00
7C
00
00
00
00
00
ENDCHAR
STARTCHAR U+00BB
ENCODING 187
SWIDTH 480 0
DWIDTH 7 0
BBX 7 14 0 -3
BITMAP
00
00
00
00
00
D8
6C
36
6C
D8
00
00
00
00
ENDCHAR
STARTCHAR U+00BC
ENCODING 188
SWIDTH 480 0
DWIDTH 7 0
BBX 7 14 0 -3
BITMAP
00
00
C0
C0
C4
C8
D4
2C
54
9E
0C
00
00
00
ENDCHAR
STARTCHAR U+00BD
ENCODING 189
SWIDTH 480 0
DWIDTH 7 0
BBX 7 14 0 -3
BITMAP
00
00
C0
C0
C4
C8
D8
2C
48
98
1C
00
00
00
ENDCHAR
STARTCHAR U+00BE
ENCODING 190
SWIDTH 480 0
DWIDTH 7 0
BBX 7 14 0 -3
BITMAP
00
00
C0
60
C4
68
D4
2C
54
9E
0C
00
00
00
ENDCHAR
STARTCHAR U+00BF
ENCODING 191
SWIDTH 480 0
DWIDTH 7 0
BBX 7 14 0 -3
BITMAP
00
00
30
30
00
30
30
60
CC
CC
78
00
00
00
ENDCHAR
STARTCHAR U+00C0
ENCODING 192
SWIDTH 480 0
DWIDTH 7 0
BBX 7 14 0 -3
BITMAP
20
10
00
78
CC
CC
CC
FC
CC
CC
CC
00
00
00
ENDCHAR
STARTCHAR U+00C1
ENCODING 193
SWIDTH 480 0
DWIDTH 7 0
BBX 7 14 0 -3
BITMAP
10
20
00
78
CC
CC
CC
FC
CC
CC
CC
00
00
00
ENDCHAR
STARTCHAR U+00C2
ENCODING 194
SWIDTH 480 0
DWIDTH 7 0
BBX 7 14 0 -3
BITMAP
10
28
00
78
CC
CC
CC
FC
CC
CC
CC
00
00
00
ENDCHAR
STARTCHAR U+00C3
ENCODING 195
SWIDTH 480 0
DWIDTH 7 0
BBX 7 14 0 -3
BITMAP
34
58
00
78
CC
CC
CC
FC
CC
CC
CC
00
00
00
ENDCHAR
STARTCHAR U+00C4
ENCODING 196
SWIDTH 480 0
DWIDTH 7 0
BBX 7 14 0 -3
BITMAP
00
48
00
78
CC
CC
CC
FC
CC
CC
CC
00
00
00
ENDCHAR
STARTCHAR U+00C5
ENCODING 197
SWIDTH 480 0
DWIDTH 7 0
BBX 7 14 0 -3
BITMAP
30
48
30
78
CC
CC
CC
FC
CC
CC
CC
00
00
00
ENDCHAR
STARTCHAR U+00C6
ENCODING 198
SWIDTH 480 0
DWIDTH 7 0
BBX 7 14 0 -3
BITMAP
00
00
1E
3C
6C
6C
CE
FC
CC
CC
CE
00
00
00
ENDCHAR
STARTCHAR U+00C7
ENCODING 199
SWIDTH 480 0
DWIDTH 7 0
BBX 7 14 0 -3
BITMAP
00
00
3C
60
C0
C0
C0
C0
C0
60
3C
08
30
00
ENDCHAR
STARTCHAR U+00C8
ENCODING 200
SWIDTH 480 0
DWIDTH 7 0
BBX 7 14 0 -3
BITMAP
20
10
00
FC
C0
C0
F8
C0
C0
C0
FC
00
00
00
ENDCHAR
STARTCHAR U+00C9
ENCODING 201
SWIDTH 480 0
DWIDTH 7 0
BBX 7 14 0 -3
BITMAP
10
20
00
FC
C0
C0
F8
C0
C0
C0
FC
00
00
00
ENDCHAR
STARTCHAR U+00CA
ENCODING 202
SWIDTH 480 0
DWIDTH 7 0
BBX 7 14 0 -3
BITMAP
10
28
00
FC
C0
C0
F8
C0
C0
C0
FC
00
00
00
ENDCHAR
STARTCHAR U+00CB
ENCODING 203
SWIDTH 480 0
DWIDTH 7 0
BBX 7 14 0 -3
BITMAP
48
00
FC
C0
C0
C0
F8
C0
C0
C0
FC
00
00
00
ENDCHAR
STARTCHAR U+00CC
ENCODING 204
SWIDTH 480 0
DWIDTH 7 0
BBX 7 14 0 -3
BITMAP
20
10
00
FC
30
30
30
30
30
30
FC
00
00
00
ENDCHAR
STARTCHAR U+00CD
ENCODING 205
SWIDTH 480 0
DWIDTH 7 0
BBX 7 14 0 -3
BITMAP
10
20
00
FC
30
30
30
30
30
30
FC
00
00
00
ENDCHAR
STARTCHAR U+00CE
ENCODING 206
SWIDTH 480 0
DWIDTH 7 0
BBX 7 14 0 -3
BITMAP
10
28
00
FC
30
30
30
30
30
30
FC
00
00
00
ENDCHAR
STARTCHAR U+00CF
ENCODING 207
SWIDTH 480 0
DWIDTH 7 0
BBX 7 14 0 -3
BITMAP
48
00
FC
30
30
30
30
30
30
30
FC
00
00
00
ENDCHAR
STARTCHAR U+00D0
ENCODING 208
SWIDTH 480 0
DWIDTH 7 0
BBX 7 14 0 -3
BITMAP
00
00
F0
D8
CC
4C
EC
4C
CC
D8
F0
00
00
00
ENDCHAR
STARTCHAR U+00D1
ENCODING 209
SWIDTH 480 0
DWIDTH 7 0
BBX 7 14 0 -3
BITMAP
34
58
00
8C
CC
EC
FC
FC
DC
CC
C4
00
00
00
ENDCHAR
STARTCHAR U+00D2
ENCODING 210
SWIDTH 480 0
DWIDTH 7 0
BBX 7 14 0 -3
BITMAP
20
10
00
78
CC
CC
CC
CC
CC
CC
78
00
00
00
ENDCHAR
STARTCHAR U+00D3
ENCODING 211
SWIDTH 480 0
DWIDTH 7 0
BBX 7 14 0 -3
BITMAP
10
20
00
78
CC
CC
CC
CC
CC
CC
78
00
00
00
ENDCHAR
STARTCHAR U+00D4
ENCODING 212
SWIDTH 480 0
DWIDTH 7 0
BBX 7 14 0 -3
BITMAP
10
28
00
78
CC
CC
CC
CC
CC
CC
78
00
00
00
ENDCHAR
STARTCHAR U+00D5
ENCODING 213
SWIDTH 480 0
DWIDTH 7 0
BBX 7 14 0 -3
BITMAP
34
58
00
78
CC
CC
CC
CC
CC
CC
78
00
00
00
ENDCHAR
STARTCHAR U+00D6
ENCODING 214
SWIDTH 480 0
DWIDTH 7 0
BBX 7 14 0 -3
BITMAP
48
00
78
CC
CC
CC
CC
CC
CC
CC
78
00
00
00
ENDCHAR
STARTCHAR U+00D7
ENCODING 215
SWIDTH 480 0
DWIDTH 7 0
BBX 7 14 0 -3
BITMAP
00
00
00
00
00
CC
78
30
78
CC
00
00
00
00
ENDCHAR
STARTCHAR U+00D8
ENCODING 216
SWIDTH 480 0
DWIDTH 7 0
BBX 7 14 0 -3
BITMAP
00
00
34
68
CC
D4
D4
D4
E4
68
50
00
00
00
ENDCHAR
STARTCHAR U+00D9
ENCODING 217
SWIDTH 480 0
DWIDTH 7 0
BBX 7 14 0 -3
BITMAP
20
10
00
CC
CC
CC
CC
CC
CC
CC
78
00
00
00
ENDCHAR
STARTCHAR U+00DA
ENCODING 218
SWIDTH 480 0
DWIDTH 7 0
BBX 7 14 0 -3
BITMAP
10
20
00
CC
CC
CC
CC
CC
CC
CC
78
00
00
00
ENDCHAR
STARTCHAR U+00DB
ENCODING 219
SWIDTH 480 0
DWIDTH 7 0
BBX 7 14 0 -3
BITMAP
10
28
00
CC
CC
CC
CC
CC
CC
CC
78
00
00
00
ENDCHAR
STARTCHAR U+00DC
ENCODING 220
SWIDTH 480 0
DWIDTH 7 0
BBX 7 14 0 -3
BITMAP
48
00
CC
CC
CC
CC
CC
CC
CC
CC
78
00
00
00
ENDCHAR
STARTCHAR U+00DD
ENCODING 221
SWIDTH 480 0
DWIDTH 7 0
BBX 7 14 0 -3
BITMAP
10
20
8C
8C
8C
58
58
30
30
30
30
00
00
00
ENDCHAR
STARTCHAR U+00DE
ENCODING 222
SWIDTH 480 0
DWIDTH 7 0
BBX 7 14 0 -3
BITMAP
00
00
C0
C0
F8
CC
CC
CC
F8
C0
C0
00
00
00
ENDCHAR
STARTCHAR U+00DF
ENCODING 223
SWIDTH 480 0
DWIDTH 7 0
BBX 7 14 0 -3
BITMAP
00
70
D8
D8
D8
B0
D8
CC
CC
CC
D8
00
00
00
ENDCHAR
STARTCHAR U+00E0
ENCODING 224
SWIDTH 480 0
DWIDTH 7 0
BBX 7 14 0 -3
BITMAP
00
20
10
00
78
0C
0C
7C
CC
CC
7C
00
00
00
ENDCHAR
STARTCHAR U+00E1
ENCODING 225
SWIDTH 480 0
DWIDTH 7 0
BBX 7 14 0 -3
BITMAP
00
10
20
00
78
0C
0C
7C
CC
CC
7C
00
00
00
ENDCHAR
STARTCHAR U+00E2
ENCODING 226
SWIDTH 480 0
DWIDTH 7 0
BBX 7 14 0 -3
BITMAP
00
10
28
00
78
0C
0C
7C
CC
CC
7C
00
00
00
ENDCHAR
STARTCHAR U+00E3
ENCODING 227
SWIDTH 480 0
DWIDTH 7 0
BBX 7 14 0 -3
BITMAP
00
34
58
00
78
0C
0C
7C
CC
CC
7C
00
00
00
ENDCHAR
STARTCHAR U+00E4
ENCODING 228
SWIDTH 480 0
DWIDTH 7 0
BBX 7 14 0 -3
BITMAP
00
00
48
00
78
0C
0C
7C
CC
CC
7C
00
00
00
ENDCHAR
STARTCHAR U+00E5
ENCODING 229
SWIDTH 480 0
DWIDTH 7 0
BBX 7 14 0 -3
BITMAP
00
30
48
30
78
0C
0C
7C
CC
CC
7C
00
00
00
ENDCHAR
STARTCHAR U+00E6
ENCODING 230
SWIDTH 480 0
DWIDTH 7 0
BBX 7 14 0 -3
BITMAP
00
00
00
00
78
B4
34
7C
B0
B4
78
00
00
00
ENDCHAR
STARTCHAR U+00E7
ENCODING 231
SWIDTH 480 0
DWIDTH 7 0
BBX 7 14 0 -3
BITMAP
00
00
00
00
3C
60
C0
C0
C0
60
3C
08
30
00
ENDCHAR
STARTCHAR U+00E8
ENCODING 232
SWIDTH 480 0
DWIDTH 7 0
BBX 7 14 0 -3
BITMAP
00
20
10
00
78
CC
CC
FC
C0
C0
7C
00
00
00
ENDCHAR
STARTCHAR U+00E9
ENCODING 233
SWIDTH 480 0
DWIDTH 7 0
BBX 7 14 0 -3
BITMAP
00
10
20
00
78
CC
CC
FC
C0
C0
7C
00
00
00
ENDCHAR
STARTCHAR U+00EA
ENCODING 234
SWIDTH 480 0
DWIDTH 7 0
BBX 7 14 0 -3
BITMAP
00
10
28
00
78
CC
CC
FC
C0
C0
7C
00
00
00
ENDCHAR
STARTCHAR U+00EB
ENCODING 235
SWIDTH 480 0
DWIDTH 7 0
BBX 7 14 0 -3
BITMAP
00
00
48
00
78
CC
CC
FC
C0
C0
7C
00
00
00
ENDCHAR
STARTCHAR U+00EC
ENCODING 236
SWIDTH 480 0
DWIDTH 7 0
BBX 7 14 0 -3
BITMAP
00
10
08
00
38
18
18
18
18
18
18
00
00
00
ENDCHAR
STARTCHAR U+00ED
ENCODING 237
SWIDTH 480 0
DWIDTH 7 0
BBX 7 14 0 -3
BITMAP
00
08
10
00
38
18
18
18
18
18
18
00
00
00
ENDCHAR
STARTCHAR U+00EE
ENCODING 238
SWIDTH 480 0
DWIDTH 7 0
BBX 7 14 0 -3
BITMAP
00
10
28
00
38
18
18
18
18
18
18
00
00
00
ENDCHAR
STARTCHAR U+00EF
ENCODING 239
SWIDTH 480 0
DWIDTH 7 0
BBX 7 14 0 -3
BITMAP
00
00
28
00
38
18
18
18
18
18
18
00
00
00
ENDCHAR
STARTCHAR U+00F0
ENCODING 240
SWIDTH 480 0
DWIDTH 7 0
BBX 7 14 0 -3
BITMAP
00
28
10
28
08
78
CC
CC
CC
CC
78
00
00
00
ENDCHAR
STARTCHAR U+00F1
ENCODING 241
SWIDTH 480 0
DWIDTH 7 0
BBX 7 14 0 -3
BITMAP
00
34
58
00
D8
EC
CC
CC
CC
CC
CC
00
00
00
ENDCHAR
STARTCHAR U+00F2
ENCODING 242
SWIDTH 480 0
DWIDTH 7 0
BBX 7 14 0 -3
BITMAP
00
20
10
00
78
CC
CC
CC
CC
CC
78
00
00
00
ENDCHAR
STARTCHAR U+00F3
ENCODING 243
SWIDTH 480 0
DWIDTH 7 0
BBX 7 14 0 -3
BITMAP
00
10
20
00
78
CC
CC
CC
CC
CC
78
00
00
00
ENDCHAR
STARTCHAR U+00F4
ENCODING 244
SWIDTH 480 0
DWIDTH 7 0
BBX 7 14 0 -3
BITMAP
00
10
28
00
78
CC
CC
CC
CC
CC
78
00
00
00
ENDCHAR
STARTCHAR U+00F5
ENCODING 245
SWIDTH 480 0
DWIDTH 7 0
BBX 7 14 0 -3
BITMAP
00
34
58
00
78
CC
CC
CC
CC
CC
78
00
00
00
ENDCHAR
STARTCHAR U+00F6
ENCODING 246
SWIDTH 480 0
DWIDTH 7 0
BBX 7 14 0 -3
BITMAP
00
00
48
00
78
CC
CC
CC
CC
CC
78
00
00
00
ENDCHAR
STARTCHAR U+00F7
ENCODING 247
SWIDTH 480 0
DWIDTH 7 0
BBX 7 14 0 -3
BITMAP
00
00
00
30
30
00
FC
00
30
30
00
00
00
00
ENDCHAR
STARTCHAR U+00F8
ENCODING 248
SWIDTH 480 0
DWIDTH 7 0
BBX 7 14 0 -3
BITMAP
00
00
00
00
04
78
CC
D4
D4
E4
78
40
00
00
ENDCHAR
STARTCHAR U+00F9
ENCODING 249
SWIDTH 480 0
DWIDTH 7 0
BBX 7 14 0 -3
BITMAP
00
20
10
00
CC
CC
CC
CC
CC
DC
6C
00
00
00
ENDCHAR
STARTCHAR U+00FA
ENCODING 250
SWIDTH 480 0
DWIDTH 7 0
BBX 7 14 0 -3
BITMAP
00
10
20
00
CC
CC
CC
CC
CC
DC
6C
00
00
00
ENDCHAR
STARTCHAR U+00FB
ENCODING 251
SWIDTH 480 0
DWIDTH 7 0
BBX 7 14 0 -3
BITMAP
00
10
28
00
CC
CC
CC
CC
CC
DC
6C
00
00
00
ENDCHAR
STARTCHAR U+00FC
ENCODING 252
SWIDTH 480 0
DWIDTH 7 0
BBX 7 14 0 -3
BITMAP
00
00
48
00
CC
CC
CC
CC
CC
DC
6C
00
00
00
ENDCHAR
STARTCHAR U+00FD
ENCODING 253
SWIDTH 480 0
DWIDTH 7 0
BBX 7 14 0 -3
BITMAP
00
08
10
00
8C
8C
8C
58
58
58
30
30
60
C0
ENDCHAR
STARTCHAR U+00FE
ENCODING 254
SWIDTH 480 0
DWIDTH 7 0
BBX 7 14 0 -3
BITMAP
00
00
C0
C0
C0
F0
D8
CC
CC
D8
F0
C0
C0
C0
ENDCHAR
STARTCHAR U+00FF
ENCODING 255
SWIDTH 480 0
DWIDTH 7 0
BBX 7 14 0 -3
BITMAP
00
00
48
00
8C
8C
8C
58
58
58
30
30
60
C0
ENDCHAR
ENDFONT
